<svg width="22" height="22" viewBox="0 0 22 22" fill="none" xmlns="http://www.w3.org/2000/svg">
<path d="M11 0.25C16.9371 0.25 21.75 5.06294 21.75 11C21.75 16.9371 16.9371 21.75 11 21.75C5.06294 21.75 0.25 16.9371 0.25 11C0.25 5.06294 5.06294 0.25 11 0.25ZM8.63086 7.22461C8.2381 6.90427 7.65909 6.92689 7.29297 7.29297C6.92698 7.65909 6.90429 8.23813 7.22461 8.63086L7.29297 8.70703L9.5859 11L7.29395 13.293C6.90357 13.6835 6.90344 14.3166 7.29395 14.707C7.68447 15.0972 8.31758 15.0974 8.70801 14.707L11 12.4141L13.292 14.707L13.3682 14.7754C13.7608 15.0957 14.3399 15.0729 14.7061 14.707C15.0721 14.3411 15.0954 13.7619 14.7754 13.3691L14.7061 13.293L12.4131 11L14.707 8.70703L14.7754 8.63086C15.0957 8.23812 15.073 7.65909 14.707 7.29297C14.3409 6.92689 13.7619 6.90427 13.3691 7.22461L13.293 7.29297L11 9.5859L8.70703 7.29297L8.63086 7.22461Z" fill="#545454"/>
</svg>
